<svg width="79" height="67" viewBox="0 0 79 67" fill="none" xmlns="http://www.w3.org/2000/svg">
<path d="M3.875 12.7187H45.9478C46.562 14.4546 47.6992 15.9573 49.2028 17.0202C50.7064 18.083 52.5024 18.6537 54.3438 18.6537C56.1851 18.6537 57.9811 18.083 59.4847 17.0202C60.9883 15.9573 62.1255 14.4546 62.7397 12.7187H75.125C75.9124 12.7187 76.6675 12.406 77.2242 11.8492C77.781 11.2925 78.0938 10.5374 78.0938 9.75C78.0938 8.96264 77.781 8.20752 77.2242 7.65077C76.6675 7.09403 75.9124 6.78125 75.125 6.78125H62.7397C62.1255 5.04543 60.9883 3.54268 59.4847 2.47983C57.9811 1.41698 56.1851 0.846283 54.3438 0.846283C52.5024 0.846283 50.7064 1.41698 49.2028 2.47983C47.6992 3.54268 46.562 5.04543 45.9478 6.78125H3.875C3.08764 6.78125 2.33253 7.09403 1.77578 7.65077C1.21903 8.20752 0.90625 8.96264 0.90625 9.75C0.90625 10.5374 1.21903 11.2925 1.77578 11.8492C2.33253 12.406 3.08764 12.7187 3.875 12.7187ZM75.125 54.2812H62.7397C62.1255 52.5454 60.9883 51.0427 59.4847 49.9798C57.9811 48.917 56.1851 48.3463 54.3438 48.3463C52.5024 48.3463 50.7064 48.917 49.2028 49.9798C47.6992 51.0427 46.562 52.5454 45.9478 54.2812H3.875C3.08764 54.2812 2.33253 54.594 1.77578 55.1508C1.21903 55.7075 0.90625 56.4626 0.90625 57.25C0.90625 58.0374 1.21903 58.7925 1.77578 59.3492C2.33253 59.906 3.08764 60.2187 3.875 60.2187H45.9478C46.562 61.9546 47.6992 63.4573 49.2028 64.5202C50.7064 65.583 52.5024 66.1537 54.3438 66.1537C56.1851 66.1537 57.9811 65.583 59.4847 64.5202C60.9883 63.4573 62.1255 61.9546 62.7397 60.2187H75.125C75.9124 60.2187 76.6675 59.906 77.2242 59.3492C77.781 58.7925 78.0938 58.0374 78.0938 57.25C78.0938 56.4626 77.781 55.7075 77.2242 55.1508C76.6675 54.594 75.9124 54.2812 75.125 54.2812ZM75.125 30.5312H33.0522C32.438 28.7954 31.3008 27.2927 29.7972 26.2298C28.2936 25.167 26.4976 24.5963 24.6562 24.5963C22.8149 24.5963 21.0189 25.167 19.5153 26.2298C18.0117 27.2927 16.8745 28.7954 16.2603 30.5312H3.875C3.08764 30.5312 2.33253 30.844 1.77578 31.4008C1.21903 31.9575 0.90625 32.7126 0.90625 33.5C0.90625 34.2874 1.21903 35.0425 1.77578 35.5992C2.33253 36.156 3.08764 36.4687 3.875 36.4687H16.2603C16.8745 38.2046 18.0117 39.7073 19.5153 40.7702C21.0189 41.833 22.8149 42.4037 24.6562 42.4037C26.4976 42.4037 28.2936 41.833 29.7972 40.7702C31.3008 39.7073 32.438 38.2046 33.0522 36.4687H75.125C75.9124 36.4687 76.6675 36.156 77.2242 35.5992C77.781 35.0425 78.0938 34.2874 78.0938 33.5C78.0938 32.7126 77.781 31.9575 77.2242 31.4008C76.6675 30.844 75.9124 30.5312 75.125 30.5312Z" fill="#41BEE5"/>
</svg>
